<?xml version="1.0" encoding="UTF-8"?>
<svg xmlns="http://www.w3.org/2000/svg" version="1.1" viewBox="0 0 4000 4000">
  <defs>
    <style>
      .cls-1 {
        fill: #ffd9ab;
      }

      .cls-2 {
        fill: #650000;
      }

      .cls-3 {
        opacity: .3;
      }

      .cls-4 {
        fill: #3fe05d;
      }

      .cls-5 {
        fill: #fff;
      }

      .cls-6 {
        fill: #fbc100;
      }

      .cls-7 {
        opacity: .55;
      }

      .cls-8 {
        fill: #02daff;
      }

      .cls-9 {
        fill: #fefefd;
      }

      .cls-10 {
        opacity: .2;
      }

      .cls-11 {
        display: none;
      }

      .cls-12 {
        fill: #ff8806;
      }

      .cls-13 {
        fill: #fc2f00;
      }

      .cls-14 {
        fill: #ffbc00;
      }
    </style>
  </defs>
  <!-- Generator: Adobe Illustrator 28.7.0, SVG Export Plug-In . SVG Version: 1.2.0 Build 4)  -->
  <g>
    <g id="Layer_1">
      <g>
        <g class="cls-11">
          <rect class="cls-8" width="4000" height="4000"/>
        </g>
        <g>
          <g class="cls-3">
            <path class="cls-2" d="M845.76,2953.3c333.35,246.76,730.57,377.19,1148.74,377.19s815.39-130.43,1148.73-377.19c80.3-59.44,108.67-164.79,68.98-256.21-25.38-58.45-75.05-102.1-136.27-119.74-30.23-8.71-61.44-10.52-91.63-5.84l-186.64-344.67c.79-5.27,1.58-10.54,2.34-15.84,4.36-30.14,8.41-60.95,8.8-92.8.21-15.9-.44-32.02-2.34-48.2-.96-7.94-2.12-16.47-4.17-24.8-1.89-8.34-4.35-16.59-7.43-24.73-2.93-8.17-6.85-16.15-11.13-24.04-4.66-7.77-9.71-15.47-16.14-22.59-12.53-14.14-30.38-26.68-51.05-31.08-10.16-2.58-20.67-2.8-30.35-1.94-9.74.85-18.73,3-26.99,5.6-3.91,1.2-7.65,2.52-11.29,3.87l-145.92-269.47c.99-2.28,2.03-4.47,3.02-6.78,1.63-3.82,3.22-7.69,4.79-11.61,1.56-4.03,3.24-8.31,4.55-12.61,5.34-17.22,9.46-35.55,8.2-56.07-.64-10.19-2.64-21-7.2-31.56-4.49-10.56-11.81-20.48-20.67-28.12-8.93-7.42-16.71-11.34-21.42-14.76-2.5-1.65-3.8-2.99-5.44-4.58-1.51-1.6-2.89-3.37-4.13-5.4-4.96-8.06-7.51-21.02-8.17-35.54-.82-14.62-.17-30.56-1.45-48.71-1.45-17.72-4.75-36.47-12.96-54.6-8.35-18.25-21.41-35.13-40.25-46.53-9.22-5.75-20.47-9.67-31.39-11.22-11-1.69-21.79-.78-31.54.97-9.81,1.73-18.66,4.9-26.86,8.1-.98.38-1.88.82-2.84,1.22l-169.61-313.22c2.17-14.52,4.29-29.25,5.77-44.3,2.23-22.25,2.71-45.77,0-68.88-2.67-23.16-8.25-46.51-18.41-68.71-4.94-11.12-11.36-21.81-18.82-31.81-7.45-10.15-16.15-19.02-26.27-27.31-10.34-8.1-21.79-14.71-34.54-19.19-12.68-4.44-26.82-7.11-41.69-5.53-14.8,1.31-29.97,7.56-41.49,16.94-11.85,9.28-20.13,21.08-26.15,32.68-12.07,23.52-15.99,47.29-18.72,69.5-2.18,19.15-2.52,38.46-1.39,57.62-18.62,12.39-34.31,29.38-45.6,50.24l-145.87,269.38c-2.02-3.14-4.17-6.28-6.45-9.2-7.35-9.51-16.3-18.01-27.15-24.98-10.84-6.86-24.02-12.29-38.89-13.21-14.74-1.08-30.32,3.23-42.44,11.08-12.24,7.8-21.28,18.22-27.8,29.15-6.52,11.02-10.86,22.66-13.29,34.83-2.41,11.97-2.87,23.13-2.74,33.88.34,21.33,3.02,40.46,2.8,57.09-.07,16.49-3.53,32.18-10.46,42.31-3.67,5.2-6.93,8.38-14.06,12.81l-12.23,7.35c-4.58,2.7-9.75,6.38-14.46,10.3-9.42,7.89-17.43,17.26-23.9,27.27-6.5,10.05-11.13,20.85-14.57,31.73-6.87,21.84-8.98,44.11-7.6,66.01.35,5.48,1.01,10.93,1.79,16.38.84,5.3,1.79,10.51,3,15.62,2.28,10.26,5.14,20.2,8.38,29.81,4.44,13.29,9.47,25.97,14.51,38.31l-157.09,290.09c-5.32-6.51-11.63-12.51-19.2-17.66-9.5-6.41-21.11-10.99-33.14-12.28-12.16-1.36-24.2.56-34.78,4.52-10.62,3.96-19.92,9.88-28.03,16.91-8.09,7.01-14.96,15.71-20.11,24.41-10.47,17.73-15.35,36.69-17.97,54.7-4.86,35.89-1.65,71.37,5.1,104.54,4.68,22.94,10.99,44.85,17.42,66.24l-156.34,288.71c-8.64-1.78-17.79-2.69-26.78-1.53-18.41,1.68-35.54,10.4-48.08,21.68-12.81,11.27-21.69,25.01-27.92,39.33-3,7.12-5.61,14.8-7.15,21.98-.94,4.14-1.7,8.24-2.37,12.31-10.19,1.39-20.35,3.5-30.4,6.39-61.22,17.64-110.89,61.28-136.27,119.74-39.69,91.41-11.32,196.77,68.98,256.21Z"/>
            <path class="cls-2" d="M2186.7,840.68c2.89,1.73,6.12,3.29,9.81,4.56-3.29-1.5-6.52-3.06-9.81-4.56Z"/>
          </g>
          <g>
            <path class="cls-14" d="M1163.43,2658.11l210.16-388.11,39.01-72.01,46.39-85.63,13.79-25.56,4.62-8.48,2.77-5.08,181.36-334.91,170.23-314.37,29.31-54.18,6.69-12.41,163.82-302.48c10.68-19.74,25.62-34.68,42.76-44.89,21.52-12.81,46.57-18.12,70.97-15.93,36.64,3.35,71.9,23.6,92.04,60.82l12.64,23.31,855.51,1579.92c-179.05,118-357.94,203.81-536.64,257.07-469.82,140.1-938.32,55.74-1405.43-257.07Z"/>
            <g class="cls-7">
              <path class="cls-5" d="M2057.66,1022.15c5.25-4.67,10.85-8.71,16.68-12.17,21.52-12.81,46.57-18.12,70.97-15.93,36.64,3.35,71.9,23.6,92.04,60.82l12.64,23.31,855.51,1579.92c-94,61.97-188,115.06-281.94,159.2,76-38.43,152.05-82.75,228.1-132.89l-855.51-1579.92-12.64-23.31c-20.14-37.22-55.4-57.47-92.04-60.82-11.25-1.04-22.68-.4-33.81,1.79Z"/>
            </g>
            <path class="cls-2" d="M2128.69,970.49c52.24,0,98.29,27.43,123.16,73.37l868.18,1603.25c6.07,11.21,1.9,25.22-9.31,31.29-11.2,6.06-25.21,1.9-31.29-9.31l-868.18-1603.25c-16.67-30.8-47.54-49.19-82.57-49.19s-65.89,18.39-82.57,49.19l-868.18,1603.25c-6.07,11.21-20.07,15.36-31.29,9.31-11.21-6.07-15.38-20.08-9.31-31.29l868.18-1603.25c24.88-45.94,70.92-73.37,123.16-73.37Z"/>
            <path class="cls-12" d="M932.15,2779.06c30.06-69.13,95.15-110.16,163.88-113.96,23.25-1.27,46.85,1.73,69.71,9.35,16.5,5.42,32.54,13.27,47.72,23.66,14.54,9.93,29.26,19.68,44.14,29.14,3.81,2.42,7.67,4.85,11.54,7.27,135.78,85,285.06,150.43,443.86,192.44,43.1,11.37,86.96,21.06,131.39,28.91,31.28,5.48,62.84,10.16,94.75,13.85,5.54.64,11.08,1.27,16.68,1.85,1.67.17,3.4.35,5.14.52,6.06.63,12.18,1.21,18.29,1.79,49.16,4.5,99.02,6.81,149.45,6.81,139.41,0,274.67-17.6,403.81-50.66,24.76-6.35,49.28-13.21,73.57-20.72,79.4-24.41,156.26-54.76,230.01-90.54,72.48-35.14,141.89-75.53,207.85-120.66,98.44-67.4,233.82-28.45,281.31,80.96,10.62,24.41,15.7,50.03,15.7,75.42,0,58.92-27.52,116.22-77.27,153.03-326.78,241.95-720.83,372.65-1134.97,372.65-251.42,0-495.44-48.18-721.47-140.16-146.34-59.55-285.11-137.45-413.5-232.49-71.15-52.63-96.83-147.26-61.57-228.45Z"/>
            <g class="cls-7">
              <path class="cls-5" d="M981.95,2997.98c319.04,224.29,698.62,345.12,1096.71,345.12s808.2-130.76,1135.03-372.71c49.74-36.76,77.21-94.11,77.21-152.97,0-25.39-5.08-51.07-15.7-75.48-9.35-21.52-22.1-40.33-37.39-56.15,37.51,19.1,69.01,50.89,87.42,93.25,10.62,24.41,15.7,50.03,15.7,75.42,0,58.92-27.52,116.22-77.27,153.03-326.78,241.95-720.83,372.65-1134.97,372.65s-808.2-130.7-1134.97-372.65c-4.1-3-8.02-6.17-11.77-9.52Z"/>
            </g>
            <path class="cls-2" d="M1106.39,2641.75c42.4,0,84.2,12.71,120.11,37.29,266.28,182.22,578.25,278.54,902.19,278.54s635.91-96.32,902.19-278.54c52.65-36.03,117.96-46.57,179.25-28.91,61.22,17.64,110.89,61.28,136.27,119.74,39.69,91.41,11.32,196.77-68.98,256.21-333.34,246.76-730.57,377.19-1148.73,377.19s-815.39-130.43-1148.73-377.19c-80.3-59.44-108.67-164.8-68.98-256.21,25.38-58.45,75.04-102.09,136.27-119.74,19.48-5.61,39.37-8.38,59.14-8.38ZM2128.69,3003.74c-333.29,0-654.27-99.11-928.27-286.61-41.24-28.22-92.41-36.47-140.4-22.65-47.94,13.81-86.83,47.99-106.7,93.76h0c-31.08,71.59-8.84,154.13,54.1,200.72,325.34,240.83,713.07,368.13,1121.27,368.13s795.93-127.3,1121.27-368.13c62.93-46.59,85.19-129.13,54.1-200.72-19.87-45.77-58.77-79.95-106.71-93.76-47.98-13.83-99.16-5.57-140.4,22.65-273.99,187.5-594.98,286.61-928.27,286.61Z"/>
            <path class="cls-12" d="M1513.34,2991.12c61.97,19.45,126.02-17.71,180.84-52.57,6.12-3.87,12.41-7.79,18.81-11.6,50.72-30.35,108.83-55.86,162.67-35.26,33.18,12.64,57.65,40.85,78.07,69.99.58.75,1.15,1.56,1.67,2.31,1.85,2.65,3.69,5.37,5.54,8.08,18.64,27.47,36.47,56.09,61.8,77.55,27.81,23.54,50.14,40.51,111.71,36.3-184.13,66.65-357.19,62.2-517.31-25.1-35.26-19.16-69.82-42.35-103.81-69.71Z"/>
            <g class="cls-7">
              <path class="cls-5" d="M1931.29,2946.76c-11.93,32.27-4.47,70.9,18.62,96.41s60.79,36.77,94.09,28.1c-34.59-44.78-74.24-83-112.7-124.51Z"/>
            </g>
            <path class="cls-2" d="M2134.85,3091.7c-15.3,2.96-31.15,4.58-47.62,3.41-16.42-.97-33.65-6.13-48.52-14.42-7.42-4.1-14.33-8.72-20.75-13.29-6.23-4.3-13.17-9.64-19.33-15.19-12.45-11.14-23.32-23.41-33.11-35.85-9.75-12.44-18.97-24.76-27.76-36.57-8.85-11.69-17.4-22.88-26.51-32.97-9.05-10.09-18.56-19.05-28.95-25.75-10.36-6.59-21.59-10.93-33.66-12.64-24.12-3.66-50.44,3.64-75.75,14.87-12.73,5.62-25.39,12.18-38.16,19.06l-19.19,10.69-19.74,11.27c-13.55,7.55-27.49,14.91-42.09,21.33-14.57,6.44-29.68,12.29-45.54,16.3-15.77,4.17-32.35,6.46-48.94,5.99-16.56-.58-33.1-4.16-47.61-11.31-2.89-1.43-4.08-4.93-2.65-7.82,1.14-2.32,3.62-3.54,6.04-3.2h.07c29.14,4.12,56.65-2.89,82.32-14.68,25.75-11.88,49.96-28.04,74.41-45.04l9.21-6.44,9.64-6.55c6.49-4.38,13.09-8.64,19.95-12.66,13.6-8.19,27.95-15.65,43.18-21.93,15.21-6.31,31.35-11.4,48.41-14.49,17.02-3.08,35.15-3.89,53.23-1.14,18.01,2.76,35.82,9.16,51.37,18.41,15.53,9.24,28.87,20.75,40.27,33.09,11.35,12.4,21.02,25.62,29.36,38.96,8.46,13.2,15.75,26.39,23.58,38.74,7.84,12.29,15.63,24.13,24.61,34.56,4.53,5.25,9.07,9.89,14.58,15.23,5.26,5.14,10.4,9.83,15.73,13.99,5.33,4.13,10.8,7.83,16.76,10.84,5.92,3.08,12.4,5.29,19.12,7.29,13.54,3.7,28.28,5.52,43.27,6.43h.03c3.21.19,5.65,2.95,5.45,6.15-.16,2.71-2.16,4.87-4.7,5.36Z"/>
            <path class="cls-12" d="M2532.5,2930.01c-.12-1.85-.35-3.75-.52-5.6-3.92-36.53-14.83-73.23-8.19-109.29,6.64-36.12,40.22-71.38,75.76-62.32,16.1,4.1,28.97,16.1,41.89,27.47,13.62,12,27.29,23.31,44.84,23.72,19.73.4,36.64-13.56,55.68-18.64,33.64-8.89,66.13,10.56,94.11,33.41,5.6,4.5,11.02,9.23,16.21,13.85,31.22,27.81,70.92,57.24,110.85,44.89l-343.91,109-119.22,37.8c28.45-20.08,35.2-59.15,32.49-94.29Z"/>
            <g class="cls-7">
              <path class="cls-5" d="M2626.86,2780.93c1.98,33.96,29.59,64.72,63.15,70.34,31.52,5.28,64.72-9.49,95.28-.15,31.19,9.52,50.81,41.5,81.07,53.67,26.79,10.78,59.96,2.99,79.15-18.59-37.71-14.13-71.35-33.45-102.72-58.7-11.13-8.96-21.89-18.64-34.67-25.03-27.68-13.85-60.43-10.39-91.27-7.67-30.83,2.72-64.48,3.7-89.98-13.85Z"/>
            </g>
            <path class="cls-2" d="M2496.69,3019.59c8.59-12.23,12.49-24.67,14.34-37.69,1.7-13.03,1.51-26.44.06-39.96-.73-6.86-1.67-13.23-2.97-20.47l-4.23-21.93c-2.93-15.03-5.93-31.06-6.92-48.34-.54-8.65-.44-17.61.45-26.73.41-4.56,1.15-9.16,1.96-13.75,1.13-4.93,2.35-9.88,4.09-14.53,6.7-18.74,17.83-35.1,33.36-48.19,7.73-6.53,16.92-12.05,27.41-15.63,10.42-3.64,22.31-5.02,33.77-3.3,11.55,1.61,22.02,6.14,30.34,11.36,8.42,5.21,15.26,10.92,21.45,16.2,6.19,5.23,11.76,10.23,16.88,14.1,5.11,3.91,9.8,6.65,13.59,7.88.97.46,1.86.56,2.71.72.43.08.86.23,1.28.3.42-.01.83-.01,1.24.01,1.64.3,3.15-.01,5.1-.33,3.83-.73,9.12-2.87,15.58-6.02,6.44-3.08,14.08-7.07,23.65-10.37,4.83-1.73,10.15-2.79,15.35-3.82,5.25-.63,10.62-1.34,15.84-1.01,5.31-.03,10.37.78,15.47,1.51,4.9,1.08,9.87,2.13,14.42,3.75,9.31,2.94,17.74,7.1,25.48,11.6,15.66,8.94,28.7,19.69,40.76,30.6,6.09,5.49,11.77,11.08,16.91,16.04,5.31,5.06,10.55,9.97,15.84,14.74,10.63,9.38,21.37,18.03,32.9,24.63,5.78,3.14,11.73,6.02,18.11,7.95,6.37,1.85,13.13,2.9,20.57,3.11h.5c3.28.11,5.86,2.84,5.76,6.12-.06,2.08-1.22,3.9-2.87,4.91-7.42,4.47-16.1,7.42-25.17,8.63-9.05,1.05-18.25.41-27.09-1.33-17.68-3.64-33.51-11.36-47.72-20.2-7.04-4.5-13.87-9.21-20.25-14.22l-18.02-14.35c-5.79-4.45-11.47-8.85-17.24-12.7-5.74-3.94-11.42-7.61-17.13-10.55-5.68-3.12-11.38-5.38-16.77-7.13-2.72-1-5.35-1.42-7.97-2.07-2.55-.25-5.12-.77-7.55-.66-2.49-.21-4.82.22-7.22.33-2.35.53-4.67.76-7.13,1.61-5.08,1.6-11.29,4.53-18.87,7.86-7.53,3.25-16.62,7.2-28.05,9.03-11.46,1.99-24.61.33-35.15-3.83-10.69-4.17-19.03-10.07-26.04-15.65-7.03-5.66-12.77-11.17-18.26-16.03-10.94-9.74-20.41-16.38-27.82-16.97-3.81-.47-7.65-.04-11.77,1.42-4.09,1.46-8.34,4.12-12.24,7.71-7.88,7.03-14.29,17.39-17.41,27.89-.88,2.63-1.31,5.22-1.85,7.82-.41,3.03-.86,6.05-1.05,9.19-.43,6.26-.36,12.76-.07,19.52.8,13.55,2.91,28.02,4.89,43.44.96,7.72,1.91,15.67,2.54,23.87.72,8.06.95,17.1.44,25.67-.93,17.3-4.79,34.99-12.94,51.24-8.06,16.14-21.96,30.63-38.61,36.43-3.13,1.09-6.55-.56-7.64-3.69-.66-1.88-.32-3.87.73-5.39l.23-.34Z"/>
            <path class="cls-12" d="M1041.67,2796.14c26.31-14.37,39.82-44.72,45.87-74.09,3.87-18.75,5.42-38.03,8.48-56.95,1.67-10.68,3.81-21.29,7.16-31.56,9.17-28.56,30.01-56.26,59.55-61.51,9.81-1.73,19.33-.81,28.39,2.19,26.77,8.77,48.7,35.49,57.41,63.7,8.77,28.74,8.25,59.15,9.06,89.33.17,9.46.58,18.87,1.38,28.27,3.46,39.3,18.35,82.11,53.72,99.6l-134.91-29.37-136.12-29.6Z"/>
            <g class="cls-7">
              <path class="cls-5" d="M1192.89,2586.75c17.13,47.66,25.16,98.58,23.52,149.21-.83,25.63-3.89,52.52,6.73,75.86,12.91,28.38,46.73,45.52,77.25,39.16-24.85-21.92-37.38-54.39-41.8-87.22-4.42-32.84-1.71-66.15-1.17-99.28.31-19.27-.82-40.44-13.83-54.66-12.13-13.25-32.96-20.21-50.69-23.06Z"/>
            </g>
            <path class="cls-2" d="M1310.17,2860.26c-13.83-3.69-26.89-12.14-36.94-23-5.15-5.4-9.43-11.41-13.5-17.58-3.75-6.28-7.27-12.78-10-19.5-5.75-13.4-9.38-27.38-11.73-41.54-2.23-13.88-3.35-27.38-4.14-40.42-1.77-26-2.56-50.09-8.2-71-2.4-9.91-6.87-19.05-12.61-27.51-5.79-8.32-13.16-15.33-20.97-19.88-7.86-4.4-15.89-6.29-23.35-4.95-7.58.95-14.6,5-21.18,11.16-6.54,6.14-12.51,14.39-17.29,23.56-2.55,4.63-4.46,9.18-6.46,14.52-1.96,5.26-3.66,10.82-5.18,16.61-2.99,11.58-5.43,24.11-8.24,37.07-2.71,12.98-5.99,26.43-10.93,39.89-5,13.29-11.68,26.22-20.73,37.59-9.05,11.31-20.88,20.89-34.29,25.91-3.02,1.13-6.37-.4-7.5-3.42-.9-2.42-.1-5.05,1.8-6.58l.17-.13c18.92-15.17,27.27-38.14,31.16-61.48,1.92-11.63,2.53-23.96,3.27-36.73.65-12.8,1.12-26.12,2.97-40.09.89-6.98,2.07-14.11,3.72-21.33,1.54-7.17,4.15-14.85,7.15-21.98,6.23-14.32,15.11-28.05,27.92-39.33,6.34-5.65,13.67-10.61,21.81-14.45,8.15-3.83,17.14-6.35,26.27-7.23,9.13-1.17,18.43-.23,27.19,1.61,8.79,2.01,16.88,5.4,24.39,9.41,14.72,8.42,26.78,19.52,36.37,32.11,9.5,12.55,17.17,26.88,21.65,42.07,8.96,29.24,8.75,57.82,8.14,83.62-.22,12.94-.8,25.46-.64,37.47.19,11.69,1.05,23.46,3.23,34.84,4.27,22.81,12.88,44.42,31.77,60.34l.2.17c2.49,2.09,2.8,5.8.71,8.29-1.51,1.8-3.88,2.46-6.01,1.89Z"/>
            <path class="cls-14" d="M1346.46,2098.85c2.14-21,7.68-42.24,20.37-59.09,12.69-16.85,33.58-28.51,54.53-26.02,13.73,1.62,25.39,8.83,34.56,19.04,10.62,11.83,17.89,27.58,21.06,43.22.17.75.29,1.56.4,2.31,5.25,28.45,1.38,57.88,3.81,86.73,2.48,29.66,14.25,61.68,40.85,75.01l-62.49,98.38-85.92,135.37c29.6-56.55,20.31-125.27,4.38-187.13-1.44-5.54-2.89-11.14-4.44-16.68-15.23-56.38-33.01-113.33-27.12-171.15Z"/>
            <path class="cls-2" d="M1368.52,2471.14c9.64-30.17,10.51-60.73,7-90.96-1.98-15.11-4.5-30.21-8.28-45.22-3.43-15.07-7.67-30.02-12.33-45.1-9.09-30.4-19.26-61.59-26.04-94.84-6.77-33.17-9.91-68.64-5.14-104.54,2.51-18.03,7.43-37.01,17.98-54.71,5.21-8.67,12.02-17.39,20.1-24.45,8.07-7.09,17.45-12.93,28.07-16.86,5.33-1.93,10.94-3.44,16.78-4.27,5.87-.77,11.94-.89,17.99-.25,12.03,1.3,23.64,5.88,33.14,12.28,19.18,13.02,30.53,31.41,37.02,50.23,3.22,9.43,5.23,19.66,5.91,28.73.81,9.26.86,18.21.59,26.82-.6,17.23-2.67,33.09-3.26,48.23-.4,7.65-.44,14.71.25,21.96.59,7.21,1.74,14.37,3.75,21.21,3.85,13.73,10.82,26.4,22.58,35.47l.2.16c2.55,1.97,3.02,5.63,1.06,8.18-1.55,2.01-4.15,2.72-6.43,1.98-8.58-2.8-16.65-7.79-23.43-14.1-6.77-6.34-12.38-13.83-16.86-21.81-4.43-8.01-7.91-16.46-10.49-25.11-2.54-8.62-4.21-17.71-5.37-26.23-2.17-17.2-2.76-33.73-4.17-48.87-1.35-15.15-4-29.03-8.79-39.88-4.85-11.32-12.25-21.23-19.95-26.54-7.74-5.25-15.24-6.94-24.71-3.91-4.61,1.57-9.31,4.23-13.47,7.73-4.2,3.52-7.67,7.56-10.64,12.85-5.95,10.28-9.48,23.27-11.15,37.24-3.24,28.51.56,58.33,7.01,88.4,6.36,30.17,15.1,61,22.3,93.24,3.5,16.25,6.5,32.88,8.54,49.72,1.68,16.9,2.89,34.03,1.82,51.29-.81,17.22-3.52,34.53-8.49,51.17-5.16,16.57-12.52,32.52-22.87,46.11-1.96,2.57-5.63,3.07-8.2,1.11-2.02-1.54-2.75-4.17-2.02-6.46Z"/>
            <path class="cls-6" d="M1656.21,1904.9l12.7-20.54c-3.35,7.27-7.56,14.14-12.7,20.54Z"/>
            <path class="cls-14" d="M1671.91,1518.87c9.98-7.1,21.52-11.94,30.76-20.02,19.74-17.25,25.27-45.64,25.22-71.78-.12-26.14-4.62-52.57-.17-78.36,4.5-25.74,21.18-51.99,46.86-56.95.75-.12,1.44-.29,2.19-.35,25.74-3.75,50.38,15.18,64.4,37.39,8.14,12.87,13.97,26.95,19.91,40.97,4.67,10.91,9.41,21.75,15.41,31.91,13.67,23.31,37.62,44.09,64.51,41.55l-177.03,287.02-95.04,154.13c15.35-33.24,13.16-74.27,3.58-110.56-3.12-11.94-6.92-23.77-10.96-35.49-10.96-31.56-23.54-62.67-29.03-95.56-7.44-45.07,2.08-97.46,39.41-123.89Z"/>
            <path class="cls-2" d="M1651.73,1901.3c17.74-32.46,15.83-69.28,7.02-103.59-2.18-8.68-4.8-17-8.01-25.63-3.12-8.59-6.4-17.26-9.97-25.98-7.15-17.42-14.79-35.41-21.2-54.6-3.24-9.61-6.09-19.55-8.38-29.81-1.21-5.11-2.16-10.33-3-15.62-.78-5.44-1.44-10.89-1.79-16.38-1.35-21.9.69-44.19,7.65-66,3.51-10.85,8.13-21.63,14.57-31.71,6.42-10.05,14.44-19.42,23.89-27.27,4.72-3.91,9.89-7.57,14.48-10.26l12.25-7.32c7.16-4.39,10.46-7.61,14.09-12.85,6.89-10.21,10.26-25.9,10.36-42.38.22-16.64-2.46-35.76-2.8-57.09-.12-10.75.33-21.91,2.74-33.88,2.43-12.17,6.77-23.81,13.29-34.83,6.52-10.93,15.55-21.35,27.8-29.15,12.13-7.85,27.71-12.16,42.44-11.08,14.87.92,28.05,6.35,38.89,13.21,10.85,6.97,19.8,15.46,27.15,24.98,3.64,4.67,7.16,9.92,9.89,14.79,2.83,4.89,5.3,9.79,7.54,14.63,4.53,9.68,8.14,19.05,11.46,27.99,3.31,8.92,6.32,17.38,9.62,25.26,1.73,3.98,3.19,7.65,5.12,11.13,1.77,3.6,3.87,7.04,6.08,10.39,9.06,13.3,20.18,25.02,37.51,29.23l.5.12c3.19.77,5.14,3.99,4.37,7.17-.49,2.01-1.98,3.54-3.78,4.19-5.25,1.87-11.02,2.86-16.87,2.81-5.83-.03-11.67-1.13-17.29-2.79-11.2-3.47-21.36-9.55-29.96-17-4.41-3.66-8.32-7.8-12.06-12.1-3.71-4.35-7.03-9.08-9.95-13.54-5.85-9.11-10.59-18.33-14.84-27.14-4.26-8.79-8.04-17.24-12.09-24.83-2.02-3.82-4.1-7.42-6.29-10.76-2.18-3.43-4.24-6.06-6.67-8.89-4.79-5.46-10.22-10.17-15.71-13.47-5.51-3.24-10.89-4.93-15.36-4.99-4.51-.05-8.47.86-12.52,3.49-4.07,2.55-8.16,6.98-11.52,12.53-3.41,5.5-6.07,12.14-7.49,18.85-1.5,6.92-2.18,15.12-2.3,23.64-.31,17.24,1.98,36.54,1.26,58.49-.43,11.01-1.82,22.27-4.74,33.72-2.98,11.41-7.66,23.13-15.19,33.93-3.82,5.35-8.22,10.46-13.31,14.92-5.08,4.53-10.29,7.99-15,10.89l-12.63,7.43c-3.76,2.16-6.41,4.15-9.15,6.36-10.84,8.77-18.86,21.75-23.03,36.97-4.42,15.09-5.35,31.93-3.76,48.43.34,4.14.94,8.24,1.6,12.34.81,4.2,1.57,8.47,2.54,12.76,1.93,8.55,4.25,17.2,6.75,26,5.17,17.6,11.18,35.7,16.61,54.73,2.71,9.51,5.41,19.18,7.63,29.11,2.17,9.88,3.93,20.37,5,30.69,2.08,20.73,1.34,42.09-3.8,62.69-5.06,20.52-15.42,40.29-30.68,54.36-2.37,2.18-6.06,2.03-8.24-.34-1.74-1.89-2-4.61-.83-6.74l.09-.16Z"/>
            <path class="cls-14" d="M2945.85,2545.97c-40.01-56.92-42.92-131.7-36.77-201,6.15-69.3,19.83-139.34,7.61-207.83-7.7-43.15-32.4-89.98-75.62-97.28-29.23-4.93-57.63,9.79-85.76,19.12-28.13,9.34-64.04,11.31-82.51-11.88"/>
            <g class="cls-7">
              <path class="cls-5" d="M2945.83,2545.99c-7.96-11.37-14.48-23.49-19.73-36.06l19.73,36.06Z"/>
            </g>
            <g class="cls-7">
              <path class="cls-5" d="M2769.14,2051.24c21.12-7.79,42.47-15.06,64.28-11.37,43.22,7.27,67.92,54.13,75.59,97.23,12.23,68.49-1.44,138.55-7.62,207.85-4.9,55.45-4.04,114.43,17.02,164.97l-47.89-87.54c-7.85-14.31-11.48-30.64-10.04-46.91,0-.06.06-.17.06-.23,6.17-69.3,19.85-139.35,7.62-207.85-7.67-43.11-32.37-89.96-75.59-97.23-5.77-.98-11.48-1.21-17.14-.81-1.15-5.48-3.17-11.54-6.29-18.12Z"/>
            </g>
            <path class="cls-2" d="M2941.13,2549.29c-19.58-24.54-32.12-54.36-39.54-84.84-7.25-30.63-9.49-62.08-9.34-93.09.3-31.12,2.93-61.63,5.2-91.61,2.14-29.96,3.92-59.49,2.63-88.17-.67-14.33-2.11-28.44-4.57-42.19-1.3-7-2.53-13.44-4.49-19.7-1.82-6.32-4.07-12.48-6.7-18.34-2.51-5.95-5.69-11.37-8.88-16.62-3.42-4.99-6.94-9.84-10.91-13.73-3.96-3.85-7.94-7.46-12.26-9.76-1.03-.72-2.1-1.28-3.21-1.71-1.09-.48-2.11-1.14-3.21-1.55-2.23-.71-4.37-1.69-6.69-2.03-4.51-1.12-9.32-1.49-14.68-1.19-5.34.36-11.21,1.35-17.5,2.82-12.57,3.1-26.55,8.07-42.17,12.65-16.5,4.82-34.75,6.85-52.98,3.22-9.08-1.84-18.26-5.21-26.23-10.76-7.92-5.52-14.49-13.3-17.29-22-1.04-3.23.73-6.7,3.96-7.74,1.56-.5,3.17-.35,4.54.3l.52.25c6.61,3.18,12.66,4.55,18.65,4.89,5.96.36,11.86-.13,17.85-1.15,12.03-2.09,24.02-5.99,36.07-10.92,13.01-5.15,26.94-12.03,43.51-17.13,8.26-2.61,17.26-4.75,26.99-5.6,9.69-.86,20.19-.64,30.35,1.94,20.66,4.41,38.52,16.94,51.05,31.08,6.43,7.12,11.48,14.82,16.14,22.59,4.28,7.89,8.2,15.87,11.13,24.04,3.08,8.14,5.54,16.39,7.43,24.72,2.05,8.33,3.21,16.86,4.17,24.8,1.9,16.18,2.55,32.3,2.34,48.2-.38,31.84-4.44,62.66-8.8,92.8-4.3,30.14-9.34,59.68-12,89-2.62,29.35-3.08,58.77.63,87.68,3.8,28.85,12.61,57,27.74,82.19l.03.05c1.64,2.74.76,6.29-1.98,7.93-2.51,1.51-5.72.88-7.5-1.35Z"/>
            <path class="cls-14" d="M2587.47,1942.7c-19.55-32.76-18.39-74.25-8.24-111.02,10.15-36.77,28.41-70.73,41.9-106.42,12.45-32.91,18.79-75.16-7.14-98.95-7.96-7.3-18.13-11.84-26.12-19.11-24.56-22.33-21.2-60.79-21.98-93.97-.5-21.14-3.61-42.65-13.1-61.55-9.48-18.9-26.05-35-46.54-40.24-28.16-7.2-56.82,6.57-83.81,17.36-26.99,10.78-60.08,18.1-83.23.53"/>
            <g class="cls-7">
              <path class="cls-5" d="M2587.49,1942.7c-3-4.96-5.48-10.16-7.5-15.52l7.5,15.52Z"/>
            </g>
            <g class="cls-7">
              <path class="cls-5" d="M2455.87,1418.18c-1.38-.35-2.71-.64-4.1-.92,18-6.35,36.3-10.44,54.47-5.83,20.49,5.25,37.1,21.35,46.57,40.28,9.46,18.87,12.58,40.39,13.1,61.51.75,33.18-2.6,71.67,21.99,94,7.96,7.27,18.12,11.83,26.08,19.1,25.97,23.77,19.62,66.01,7.16,98.96-13.5,35.66-31.74,69.65-41.89,106.41-8.6,31.16-10.73,65.72.75,95.5l-2.36-4.89c-28.69-59.35-30.72-127.75-7.24-189.35.12-.32.25-.65.37-.97,12.46-32.89,18.81-75.13-7.16-98.9-7.96-7.33-18.12-11.89-26.08-19.1-24.58-22.33-21.24-60.82-21.98-94-.52-21.12-3.64-42.64-13.1-61.57-9.52-18.87-26.08-34.97-46.57-40.22Z"/>
            </g>
            <path class="cls-2" d="M2582.52,1945.66c-11.81-12.7-19.85-29.38-23.8-46.68-4.23-17.34-4.77-35.34-2.94-52.8,3.64-35.47,17.22-66.91,28.9-96.3l8.73-21.72c1.39-3.57,2.73-7.14,4.02-10.68,1.23-3.45,2.3-6.67,3.34-10.01,4.17-13.17,6.51-26.71,6.03-38.19-.24-5.73-1.28-10.84-2.93-15.01-1.63-4.22-3.95-7.47-6.99-10.48-3.18-3.07-9.57-6.8-17.77-12.78-4.08-2.9-8.6-7.08-12.43-11.32-3.84-4.32-7.15-9.06-9.93-13.94-5.55-9.79-8.68-19.97-10.58-29.52-1.89-9.59-2.61-18.7-2.98-27.39-.78-17.3.32-33.37-1.1-47.09-1.2-14.05-4.46-27.12-10.01-37.91-5.33-10.53-13.63-19.25-22.35-24.2-4.48-2.46-8.56-4.03-13.45-4.77-4.82-.65-10.18-.89-16.17-.05-12.04,1.37-25.96,6.16-41.14,11.06-7.46,2.36-16.1,5.05-24.85,6.79-8.77,1.74-17.86,2.88-27.21,2.75-9.33-.2-18.99-1.53-28.09-5.03-9.07-3.4-17.49-9.08-23.1-16.49-1.99-2.64-1.47-6.39,1.16-8.38,1.58-1.2,3.57-1.49,5.34-.96l.47.15c14.28,4.41,27.08,2.35,40.15-1.85,6.51-2.16,13.01-4.79,19.47-7.82,6.51-3,12.7-6.33,20.01-10.02,7.17-3.57,14.72-7.23,22.94-10.43,8.2-3.19,17.04-6.36,26.86-8.1,9.75-1.76,20.54-2.66,31.54-.97,10.92,1.55,22.17,5.47,31.39,11.22,18.84,11.4,31.9,28.29,40.25,46.53,8.21,18.13,11.51,36.88,12.96,54.6,1.25,18.15.71,34.1,1.56,48.7.74,14.5,3.12,27.45,8.06,35.54,1.23,2.03,2.61,3.8,4.12,5.4,1.64,1.58,2.93,2.92,5.44,4.57,4.71,3.42,12.49,7.34,21.42,14.76,8.86,7.65,16.18,17.56,20.67,28.12,4.56,10.56,6.56,21.37,7.2,31.56,1.25,20.52-2.86,38.85-8.2,56.07-1.31,4.3-2.99,8.58-4.55,12.61-1.57,3.92-3.16,7.79-4.79,11.61-3.28,7.62-6.54,15.12-9.98,22.4-13.66,29.09-26.8,56.42-34.78,84.03-3.99,13.93-6.51,28.16-7.33,42.61-.65,14.47.93,28.99,5.31,43.87l.07.23c.92,3.12-.87,6.4-4,7.32-2.21.65-4.51-.06-5.98-1.64Z"/>
            <path class="cls-14" d="M2079.64,918.52c5.42-29.2,17.02-60.88,43.85-73.57,26.43-12.52,58.86-1.44,80.96,17.77,9.17,8.02,16.97,17.14,23.54,27.12,23.89,36.3,31.33,83.67,29.03,127.99-1.04,20.25-3.75,40.34-7.04,60.36-5.89,35.78-13.5,71.38-16.39,107.5-4.44,56.38,4.85,117.95,44.32,158.4l-137.45-66.7-63.07-30.58c24.06-17.66,32.31-50.49,29.83-80.15-2.42-29.72-13.68-57.82-21.35-86.61-6.06-22.91-9.93-46.45-11.54-70.05-2.02-30.53-.29-61.34,5.31-91.46Z"/>
            <path class="cls-2" d="M2273.8,1348.12c-8.64-7.18-16.41-15.54-23.25-24.69-6.73-9.22-12.52-19.18-17.28-29.63-9.47-20.93-15-43.42-17.85-66-1.41-11.31-2.05-22.67-2.3-34.04-.12-11.43.41-22.54,1.1-33.67,1.27-22.23,4.36-43.85,8.69-64.67,4.31-20.83,7.84-41.35,9.76-61.56,2.02-20.29,2.33-39.77.09-59.17-2.21-19.27-6.84-38.02-14.51-54.74-3.71-8.44-8.45-16.17-13.75-23.29-2.58-3.64-5.59-6.85-8.52-10.13-3.13-2.98-6.33-6.28-9.5-8.72-12.85-10.29-29.66-16.41-42.61-14.64-3.24.36-6.24,1.12-8.98,2.39-2.79,1.16-5.5,2.78-7.91,4.92-4.93,4.07-9.27,10.21-12.81,17.63-7.26,14.9-10.74,34-13.75,54-2.69,19.78-4.35,39.79-4.25,59.92.05,20.12,1.97,40.29,5.3,60.28,3.23,19.82,9.21,39.98,13.76,61.88,2.29,10.91,4.19,22.19,4.87,33.77.71,11.53.35,23.67-2.11,35.17-2.33,11.55-6.3,22.9-12.48,33.1-3.06,5.1-6.74,9.86-10.82,14.17-4.18,4.26-8.9,7.92-13.86,11.03-2.71,1.7-6.27.88-7.97-1.82-1.5-2.4-1.04-5.47.97-7.32l.19-.17c14.42-13.34,20.59-32.75,21.39-51.92,1-19.28-4.09-38.28-10.62-57.78-3.31-9.74-7.09-19.58-10.81-29.79-3.67-10.17-7.22-20.94-10.22-31.81-6.15-21.71-9.95-44.1-11.93-66.69-2.02-22.59-1.88-45.47.71-68.13,1.32-11.38,3.09-22.38,5.84-34.24,2.97-11.68,6.78-23.55,12.88-35.26,6.02-11.61,14.3-23.41,26.15-32.68,11.52-9.38,26.69-15.62,41.49-16.94,14.88-1.58,29.02,1.09,41.7,5.53,12.75,4.49,24.2,11.09,34.54,19.19,5.28,4.14,9.58,8.5,14.14,12.93,4.25,4.64,8.48,9.31,12.13,14.38,7.46,10,13.89,20.68,18.82,31.81,10.16,22.19,15.73,45.54,18.41,68.71,2.71,23.1,2.23,46.63,0,68.88-2.2,22.37-5.8,44.06-8.91,65.35-3.09,21.3-7.72,41.76-11.86,61.97-3.9,20.3-6.67,40.11-7.17,60.26-.5,20.08,1.15,40.18,5.91,59.63,2.56,9.64,5.6,19.24,9.8,28.41,4.32,9.09,9.57,17.8,15.67,26.13l.12.17c1.89,2.58,1.33,6.21-1.25,8.11-2.19,1.61-5.14,1.44-7.14-.22Z"/>
            <g class="cls-3">
              <path class="cls-2" d="M932.15,2779.06c30.06-69.13,95.15-110.16,163.88-113.96,1.67-10.68,3.81-21.29,7.16-31.56,9.17-28.56,30.01-56.26,59.55-61.51,9.81-1.73,19.33-.81,28.39,2.19,5.65,5.89,10.96,12.12,15.93,18.58-19.91,4.33-34.1,23.14-39.07,42.93-3.12,12.64-3.23,25.68-2.25,38.72.58,7.39,1.5,14.77,2.42,22.1,3.52,27.76,7.1,55.51,10.62,83.32,1.73,13.62,3.46,27.58.52,41.03-.35,1.67-.87,3.29-1.5,4.85-4.27,10.56-14.25,17.31-23.54,24.99-47.89,39.76-65.09,112.23-40.22,169.24,21.24,48.59,66.88,81.48,111.19,110.5,59.26,38.83,119.97,75.36,182,109.52-146.34-59.55-285.11-137.45-413.5-232.49-71.15-52.63-96.83-147.26-61.57-228.45Z"/>
            </g>
            <g class="cls-3">
              <path class="cls-2" d="M1259.68,2740.39c3.12-2.08,6.29-4.04,9.46-5.89,135.78,85,285.06,150.43,443.86,192.44,50.72-30.35,108.83-55.86,162.67-35.26,33.18,12.64,57.65,40.85,78.07,69.99.81,3.29,1.5,6.58,2.08,9.87.92,4.96,1.73,9.98,2.31,15.06-5.54-6.75-11.94-12.35-18.98-16.91-26.43-17.43-61.69-20.43-94.75-13.85-10.39,2.02-20.54,4.96-30.12,8.77-48.3,19.04-88.86,53.55-135.37,76.51-19.1,9.41-40.39,16.62-61.74,19.68-30.7,4.44-61.57.4-86.27-17.66-29.6-21.64-45.07-59.61-76.86-77.9-16.91-9.69-36.7-12.75-54.99-19.33-67.51-24.24-107.68-91.86-142.35-154.65-4.21-7.56-3.29-17.25-3.58-25.91-.23-8.71-.69-20.2,6.58-24.99Z"/>
            </g>
            <g class="cls-3">
              <path class="cls-2" d="M2128.69,2980.67c139.41,0,274.67-17.6,403.81-50.66-.12-1.85-.35-3.75-.52-5.6-3.92-36.53-14.83-73.23-8.19-109.29,6.64-36.12,40.22-71.38,75.76-62.32,16.1,4.1,28.97,16.1,41.89,27.47,0,2.65-.29,5.19-.87,7.67-18.52-5.02-38.66,7.44-47.03,24.76-8.43,17.31-7.16,37.85-2.08,56.38,3.75,13.73,9.46,26.89,14.6,40.22,1.79,4.62,3.52,9.29,5.08,13.96,6.58,20.2,9.75,42.07,8.08,63.24-1.56,20.08-7.5,39.53-18.93,56.15-23.43,34.04-65.78,50.66-106.87,54.41-41.14,3.81-82.4-3.23-123.54-6.81-41.14-3.52-84.19-3.23-121.7,14.19-27.99,12.98-51.88,35.14-81.82,42.53-37.05,9.12-76.63-6.58-105.31-31.68-28.74-25.04-48.59-58.45-67.97-91.23-8.89-15-13.1-32.2-13.85-50.2,49.16,4.5,99.02,6.81,149.45,6.81Z"/>
            </g>
            <g class="cls-3">
              <path class="cls-2" d="M2846.25,2815.3c47.36-30.43,91.4-65.91,139.6-95,48.2-29.09,101.9-51.97,158.17-53.62,56.27-1.65,112.99,19.94,144.81,66.38-37.35-19.63-82.65-23.55-122.81-10.62s-74.67,42.53-93.56,80.26c-8.95,17.87-14.72,37.73-27.68,52.95-17.69,20.77-46.41,29.48-73.69,29.08-27.28-.4-53.75-8.74-79.75-17.01-19.33-6.14-36.28-34.15-45.08-52.42Z"/>
            </g>
            <g class="cls-3">
              <path class="cls-2" d="M1373.58,2269.99c-15.23-56.38-33.01-113.33-27.12-171.15,2.14-21,7.68-42.24,20.37-59.09,12.69-16.85,33.58-28.51,54.53-26.02,13.73,1.62,25.39,8.83,34.56,19.04,9.18,16.39,14.77,35.03,16.85,54.01.75,6.92,1.04,13.91.86,20.83-5.14.92-10.04,2.54-14.66,4.73-23.08,10.68-39.53,35.08-44.43,60.59-1.62,8.31-2.19,16.68-1.96,25.04.58,22.56,6.98,45.12,15.35,66.3,9.87,24.99,22.33,48.99,31.62,74.15,1.56,4.04,2.94,8.14,4.27,12.23,9.4,29.78,22.1,70.98,5.25,97.23-36.06,56.26-53.26,126.72-36.64,191.46,16.62,64.74,70.63,120.95,136.76,130.7,55.86,8.19,110.79-15.58,166.53-24.58,63.59-10.21,130.24-.75,188.46,26.89,49.45,23.49,92.61,59.49,143.97,78.42,51.13,18.81,106.87,19.45,161.34,19.91,40.51.29,82.52.35,119.62-16.04,39.47-17.43,68.84-51.47,104.21-76.28,32.14-22.62,76.28-36.87,110.73-20.66-20.25,10.79-35.95,33.93-40.28,57.42-6.64,36.06,4.27,72.76,8.19,109.29.06.4.06.86.11,1.27-190.94,52.16-381.59,67.28-572.07,45.01h-.06c-1.5-2.25-3-4.5-4.56-6.69-.52-.75-1.1-1.56-1.67-2.31-20.43-29.14-44.89-57.36-78.07-69.99-51.36-19.62-106.58,2.65-155.57,31.1-154.36-43.57-308.6-111.77-462.67-204.85-.63-27.12-1.04-54.24-8.89-80.04-7.1-23.02-23.02-45.07-43.22-57.13l168.26-310.79Z"/>
            </g>
            <g class="cls-3">
              <path class="cls-2" d="M1632.5,1642.76c-7.44-45.07,2.08-97.46,39.41-123.89,9.98-7.1,21.52-11.94,30.76-20.02,19.74-17.25,25.27-45.64,25.22-71.78-.12-26.14-4.62-52.57-.17-78.36,4.5-25.74,21.18-51.99,46.86-56.95.75-.12,1.44-.29,2.19-.35,30.87,12.98,49.39,50.89,54.01,85.86,2.02,15.46,2.31,31.16.98,46.68-2.77,31.97-12.46,63.36-28.51,91.11-16.85,29.08-40.74,54.93-49.74,87.36-11.37,41.03-2.19,84.31,10.44,127.81,8.25,28.27,17.95,56.72,24.52,84.71,32.08-27.87,74.03-44.72,119.85-44.72,68.67,0,128.51,37.85,159.67,93.88-18.75-6.69-39.01-10.21-60.07-10.21-100.98,0-182.86,81.94-182.86,182.86,0,32.31,8.43,62.67,23.2,88.98-57.18-19.79-101.44-67.22-116.85-126.31-18.87,28.68-35.43,58.28-38.89,91.29-3.29,31.04,5.66,61.97,9,93.02,3.41,31.04-.23,65.9-22.97,87.31-18.7,17.66-46.68,22.16-72.19,18.98-44.26-5.48-85.29-32.43-107.91-70.8,3.58-48.59-5.25-97.52-18.29-145.99l181.36-334.91c-10.96-31.56-23.54-62.67-29.03-95.56Z"/>
            </g>
            <g class="cls-3">
              <path class="cls-2" d="M1867.76,1357.36l163.82-302.48c10.68-19.74,25.62-34.68,42.76-44.89-2.02-30.53-.29-61.34,5.31-91.46,5.42-29.2,17.02-60.88,43.85-73.57,26.43-12.52,58.86-1.44,80.96,17.77,9.17,8.02,16.97,17.14,23.54,27.12-21.87,1.33-43.45,8.94-58.57,24.58-19.85,20.66-24.99,50.26-24.12,79.63.17,8.02.87,16.1,1.85,23.89,6.69,54.53,22.91,108.25,21.75,163.19-.75,33.58-9.92,68.84-28.45,96.25-11.77,17.54-27.35,31.85-46.97,40.51-25.04,11.08-58.74,15.81-67.22,41.89-5.54,17.14,3.46,35.89.69,53.66-4.21,27.12-35.31,43.16-62.61,40.68-27.35-2.48-51.36-18.23-74.15-33.53-8.48-20.66-15.98-41.78-22.45-63.24Z"/>
            </g>
            <g class="cls-3">
              <path class="cls-2" d="M3025.57,2702.45c-21.38,6.73-44.73-1.35-63.91-12.96-19.18-11.6-36.23-26.78-56.52-36.31-51.79-24.32-113.51-7.24-164.72,18.27-51.21,25.52-99.56,59.57-155.7,70.6,8.94,8.46,21.17,12.76,30.11,21.22,11.62,10.99,23.61,22.23,38.45,28.19,27.5,11.06,58.44,1.98,88.08,1.39,31.49-.63,63.11,8.87,89.04,26.76,75.19-14.59,142.8-61.27,195.17-117.16Z"/>
            </g>
            <circle class="cls-13" cx="2489.95" cy="2434.51" r="182.86" transform="translate(-992.17 2473.71) rotate(-45)"/>
            <g class="cls-3">
              <path class="cls-2" d="M2207.45,2350.79c0-101,81.86-182.86,182.86-182.86,68.69,0,128.56,37.88,159.71,93.87-18.8-6.65-39.03-10.18-60.07-10.18-101,0-182.86,81.93-182.86,182.86,0,32.31,8.42,62.65,23.14,88.98-71.47-24.77-122.79-92.72-122.79-172.68Z"/>
            </g>
            <g class="cls-7">
              <path class="cls-5" d="M2616.88,2407.2c0-61.02-29.93-115.12-75.88-148.31,76.16,22.06,131.81,92.38,131.81,175.59,0,101-81.86,182.92-182.86,182.92-39.98,0-76.9-12.83-106.97-34.62,16.22,4.75,33.33,7.26,51.04,7.26,101,0,182.86-81.86,182.86-182.86Z"/>
            </g>
            <path class="cls-2" d="M2489.95,2228.57c113.56,0,205.94,92.39,205.94,205.94s-92.38,205.94-205.94,205.94-205.94-92.39-205.94-205.94,92.38-205.94,205.94-205.94ZM2489.95,2594.29c88.1,0,159.78-71.68,159.78-159.78s-71.68-159.78-159.78-159.78-159.78,71.68-159.78,159.78,71.68,159.78,159.78,159.78Z"/>
            <g class="cls-3">
              <circle class="cls-2" cx="2501.18" cy="2386.03" r="26.71" transform="translate(-395.67 4272.1) rotate(-76.72)"/>
            </g>
            <g class="cls-3">
              <circle class="cls-2" cx="2427.13" cy="2463.98" r="39.72" transform="translate(-1031.41 2437.92) rotate(-45)"/>
            </g>
            <circle class="cls-13" cx="2007.94" cy="2036.79" r="182.86"/>
            <g class="cls-7">
              <path class="cls-5" d="M2134.86,2009.47c0-61.02-29.93-115.12-75.88-148.31,76.16,22.06,131.81,92.38,131.81,175.59,0,101-81.86,182.92-182.86,182.92-39.98,0-76.9-12.83-106.97-34.62,16.22,4.75,33.33,7.26,51.04,7.26,101,0,182.86-81.86,182.86-182.86Z"/>
            </g>
            <path class="cls-2" d="M2007.94,1830.84c113.56,0,205.94,92.39,205.94,205.94s-92.38,205.94-205.94,205.94-205.95-92.39-205.95-205.94,92.39-205.94,205.95-205.94ZM2007.94,2196.57c88.1,0,159.78-71.68,159.78-159.78s-71.68-159.78-159.78-159.78-159.79,71.68-159.79,159.78,71.68,159.78,159.79,159.78Z"/>
            <g class="cls-3">
              <circle class="cls-2" cx="2019.17" cy="1988.3" r="26.71" transform="translate(-814.54 2010.13) rotate(-45)"/>
            </g>
            <g class="cls-3">
              <circle class="cls-2" cx="1945.12" cy="2066.26" r="39.72"/>
            </g>
            <path class="cls-6" d="M2470.44,2709.23c-15.21-3.14-25.62-17.93-29.31-33.02-3.69-15.09-2.22-30.88-2.59-46.41-.84-35.34-12.25-71.56-37.24-96.58-24.98-25.01-64.85-36.42-97.32-22.44-25.13,10.81-42.21,34.06-59.54,55.24-17.32,21.18-38.29,42.44-65.38,46.32"/>
            <path class="cls-6" d="M2470.47,2709.24c-2.25-.46-4.33-1.15-6.35-2.14l6.35,2.14Z"/>
            <g class="cls-7">
              <path class="cls-5" d="M2261.93,2544.72c12.06-13.96,25.27-26.72,42.07-33.93,32.49-13.96,72.3-2.6,97.29,22.45,24.99,24.99,36.41,61.22,37.28,96.54.35,15.52-1.1,31.33,2.6,46.45,3.17,12.87,11.19,25.5,22.97,30.87l-49.78-16.51c-11.3-3.75-18.82-14.26-19.11-26.16,0-.07,0-.13,0-.2-.81-35.31-12.23-71.55-37.22-96.54-24.64-24.7-63.82-36.12-96.08-22.97Z"/>
            </g>
            <path class="cls-2" d="M2469.28,2714.88c-6.05.33-12.42-1.3-18.03-4.22-5.57-2.98-10.5-7.07-14.62-11.75-4.07-4.73-7.42-10.04-10-15.81-2.49-5.85-4.21-11.46-5.42-17.12-2.45-11.26-3.08-21.79-4.02-30.94-.91-8.97-2.19-17.15-4.04-25.44-3.71-16.43-10.21-31.63-18.91-44.21-8.87-12.69-19.34-22.25-32.58-28.62-12.99-6.27-27.7-9.43-40.83-6.81-12.81,2.2-25.87,10.48-38.94,22.7-6.53,6.05-13.09,12.88-20.03,19.89-6.99,6.96-14.32,14.59-22.64,21.16-8.21,6.7-17.27,12.89-27.33,17.41-9.99,4.6-21.15,7.26-32.01,6.93-3.23-.1-5.77-2.8-5.68-6.03.08-2.45,1.65-4.51,3.81-5.31l.23-.08c17.06-6.32,29.28-19.03,40.31-33.33,5.46-7.3,10.61-14.75,15.9-22.97,5.35-8.17,11.05-16.58,17.71-24.94,6.66-8.36,14.33-16.69,23.84-24.09,9.34-7.4,20.94-13.59,33.4-17.11,24.93-7.09,51.06-4.07,73.53,5.62,11.29,4.87,21.83,11.44,31.19,19.65,9.34,8.39,17,17.57,23.31,27.74,12.72,20.18,19.38,42.67,21.96,64.76,1.35,10.99,1.46,22.35.62,32.92-.87,10.38-2.27,19.42-2.87,27.64-.54,8.35-.48,15.24,1.71,22.55,2.12,7.26,5.83,13.73,12.75,18.5l.72.49c2.7,1.86,3.38,5.55,1.52,8.25-1.08,1.56-2.81,2.45-4.57,2.56Z"/>
            <path class="cls-6" d="M2055.34,2308.26c-15.46,1.46-29.75-9.62-37.71-22.96-7.96-13.34-11.19-28.87-16.11-43.6-11.18-33.54-32.73-64.81-63.96-81.39-31.23-16.57-72.68-15.77-99.62,7.12-20.85,17.72-30.35,44.95-40.69,70.28-10.34,25.33-24.14,51.82-48.89,63.47"/>
            <path class="cls-6" d="M2232.73,2092.79l6.64.17c-2.25.23-4.44.17-6.64-.17Z"/>
            <g class="cls-7">
              <path class="cls-5" d="M1830.68,2174.36c2.31-2.42,4.67-4.73,7.27-6.92,26.95-22.91,68.38-23.72,99.6-7.1,31.22,16.56,52.8,47.84,63.99,81.36,4.9,14.71,8.14,30.24,16.1,43.62,6.81,11.43,18.18,21.12,31.04,22.73l-40.3-.92c-24.84-.57-46.37-16.91-54.15-40.51-.04-.13-.09-.27-.13-.4-11.19-33.53-32.72-64.8-63.94-81.36-18-9.58-39.41-13.39-59.49-10.5Z"/>
            </g>
            <path class="cls-2" d="M2055.88,2314c-5.69,2.09-12.26,2.41-18.48,1.26-6.2-1.21-12.12-3.68-17.43-6.94-5.28-3.33-10.04-7.42-14.2-12.18-4.09-4.86-7.39-9.71-10.2-14.78-5.65-10.04-9.34-19.93-12.92-28.39-3.5-8.31-7.13-15.75-11.33-23.13-8.37-14.61-19.05-27.24-31.05-36.71-12.21-9.53-25.02-15.59-39.54-17.79-14.26-2.17-29.25-.88-41.03,5.48-11.59,5.87-21.66,17.62-30.56,33.13-4.47,7.71-8.73,16.15-13.3,24.9-4.64,8.71-9.41,18.15-15.43,26.87-5.88,8.81-12.72,17.39-21.01,24.67-8.2,7.33-18.09,13.15-28.57,16.03-3.12.86-6.34-.98-7.19-4.1-.65-2.37.25-4.79,2.09-6.2l.19-.15c14.45-11.05,22.4-26.79,28.75-43.69,3.07-8.58,5.81-17.21,8.45-26.62,2.72-9.38,5.69-19.09,9.61-29.04,3.91-9.94,8.8-20.16,15.72-30.02,6.76-9.82,16.03-19.14,26.91-26.16,21.75-14.1,47.62-18.88,71.94-16.22,12.22,1.34,24.23,4.53,35.58,9.63,11.39,5.28,21.42,11.81,30.42,19.68,18.09,15.55,31.06,35.1,40,55.46,4.52,10.11,7.96,20.94,10.26,31.29,2.22,10.18,3.54,19.23,5.38,27.26,1.93,8.14,4.01,14.71,8.25,21.05,4.16,6.32,9.61,11.42,17.63,13.94l.83.26c3.12.99,4.86,4.32,3.87,7.44-.57,1.81-1.96,3.17-3.61,3.79Z"/>
            <g>
              <g class="cls-3">
                <path class="cls-2" d="M1868.37,2653.94c39.84-52.26.86-82.86-53.88-113.1-20.9-11.55-25.59-39.53-9.62-57.29,15.85-17.62,35.78-38.65,54.98-55.77,41.33-36.85-26-70.53-26-70.53l-10.32-6.32s-60.57-44.7-74.65,8.86c-6.61,25.15-16.44,52.79-25.02,75.04-8.62,22.36-35.94,30.76-55.63,17.11-56.7-39.29-110.08-68.59-135.05-3.39-20.22,52.8,6.34,158.05,98.91,214.78,92.57,56.73,195.04,44.71,236.28-9.38Z"/>
              </g>
              <path class="cls-1" d="M1931.83,2725.11c39.84-52.26.86-82.86-53.88-113.1-20.9-11.55-25.59-39.53-9.62-57.29,15.85-17.62,35.78-38.65,54.98-55.77,41.33-36.85-26-70.53-26-70.53l-10.32-6.32s-60.57-44.7-74.65,8.86c-6.61,25.15-16.44,52.79-25.02,75.04-8.62,22.36-35.94,30.76-55.63,17.11-56.7-39.29-110.08-68.59-135.05-3.39-20.22,52.8,6.34,158.05,98.91,214.78,92.57,56.73,195.04,44.7,236.28-9.38Z"/>
              <g class="cls-3">
                <path class="cls-2" d="M1943.01,2489.58c13.38-30.68-37.14-55.91-37.14-55.91l-10.34-6.33s-60.56-44.73-74.63,8.86c-6.62,25.16-16.4,52.79-25,75.01-8.61,22.37-35.96,30.74-55.65,17.11-56.67-39.29-110.06-68.55-135.08-3.37-12.74,33.35-6.84,87.55,22.54,137.29-11.12-35.17-11.28-68.88-2.32-92.22,24.96-65.21,78.32-35.9,135.04,3.42,19.69,13.63,46.99,5.23,55.59-17.15,8.59-22.23,18.41-49.91,25.03-75.07,14.09-53.5,74.68-8.82,74.68-8.82l10.28,6.3s8.13,4.04,16.98,10.88Z"/>
              </g>
              <g class="cls-7">
                <path class="cls-9" d="M1929.29,2647.07c-1.79,9.59-6.72,20.07-15.54,31.64-41.22,54.07-143.69,66.05-236.25,9.33-37.63-23.06-64.32-54.1-81.41-86.33,12.16,47.2,43.91,98.7,99.47,132.75,92.56,56.72,195.03,44.74,236.25-9.33,25.05-32.8,19.03-57.07-2.52-78.05Z"/>
              </g>
              <path class="cls-2" d="M1842.21,2384.39c25.12,0,49.2,15.97,56.03,20.9l8.95,5.48c9.2,4.73,45.1,25.1,49.35,57.07,1.55,11.65-.62,29.11-19.77,46.18-15.41,13.74-33.88,32.49-53.4,54.2-3.48,3.87-4.98,9.02-4.12,14.14.5,3,2.28,8.55,8.49,11.98,34.42,19.02,71.78,42.31,79.3,78.05,4.37,20.74-2.07,42.6-19.13,64.97h0c-51.12,67.06-166.6,73.37-262.89,14.36-105.08-64.39-129.78-180.31-107.22-239.23,9.97-26.03,25.27-42.39,45.48-48.63,37.27-11.5,79.69,14.75,119.94,42.64,4.27,2.96,9.57,3.77,14.53,2.24,4.97-1.53,8.89-5.18,10.75-10.01,10.63-27.58,19.05-52.79,24.34-72.91,6.52-24.81,21.09-34.68,32.17-38.58,5.66-2,11.46-2.83,17.21-2.83ZM1915.78,2712.86c14.49-19,12.4-28.91,11.72-32.17-3.83-18.19-32.12-36-59.3-51.01-15.38-8.5-25.87-23.31-28.79-40.63-2.91-17.33,2.15-34.77,13.92-47.85,20.79-23.12,39.82-42.41,56.55-57.34,3.28-2.93,7.09-7.16,6.62-10.72-1.11-8.34-17.17-21.16-28.2-26.68-.52-.26-1.03-.54-1.52-.84l-10.32-6.32c-.49-.3-.98-.63-1.44-.97-9.78-7.13-28.5-15.88-36.6-13.01-3.37,1.2-5.41,6.51-6.52,10.75-5.74,21.84-14.39,47.81-25.71,77.17-6.34,16.47-19.67,28.9-36.56,34.09-16.88,5.2-34.9,2.41-49.42-7.64-20.57-14.26-63.41-43.94-85.01-37.25-7.75,2.39-14.38,10.63-19.68,24.48-17.47,45.59,8.55,140.06,90.6,190.34,86.84,53.21,176.45,39.15,209.67-4.41h0Z"/>
            </g>
            <g>
              <g class="cls-3">
                <path class="cls-2" d="M2312.63,1717.5c53.44-38.26,25.15-78.95-18.29-123.93-16.59-17.18-12.86-45.31,7.63-57.59,20.32-12.19,45.56-26.44,68.93-37.17,50.33-23.09-4.14-75.06-4.14-75.06l-8.01-9.08s-44.77-60.52-73.96-13.46c-13.7,22.1-31.22,45.63-45.95,64.38-14.8,18.84-43.39,18.85-58.2.02-42.67-54.21-85.08-97.89-128.1-42.9-34.84,44.53-40.36,152.95,31.48,234.36,71.83,81.41,173.32,100.01,228.61,60.42Z"/>
              </g>
              <path class="cls-1" d="M2350.13,1762.71c53.44-38.26,25.15-78.95-18.29-123.93-16.59-17.18-12.86-45.31,7.63-57.59,20.32-12.19,45.56-26.44,68.93-37.17,50.33-23.09-4.14-75.06-4.14-75.06l-8.01-9.08s-44.77-60.52-73.96-13.46c-13.7,22.1-31.22,45.63-45.95,64.38-14.8,18.84-43.39,18.85-58.2.02-42.67-54.21-85.08-97.89-128.1-42.9-34.84,44.53-40.36,152.95,31.48,234.36,71.83,81.41,173.32,100.01,228.61,60.42Z"/>
              <g class="cls-3">
                <path class="cls-2" d="M2429.98,1540.85c21.8-25.4-19.08-64.35-19.08-64.35l-8.02-9.09s-44.76-60.54-73.94-13.45c-13.72,22.11-31.18,45.64-45.92,64.36-14.8,18.86-43.41,18.83-58.22.01-42.64-54.2-85.08-97.84-128.14-42.89-21.97,28.14-32.25,81.68-18.77,137.85-.3-36.89,9.45-69.16,24.87-88.84,43.01-55.01,85.4-11.32,128.08,42.93,14.81,18.81,43.38,18.8,58.18-.06,14.74-18.72,32.25-42.3,45.97-64.41,29.18-47,73.98,13.5,73.98,13.5l7.98,9.04s6.58,6.25,13.04,15.38Z"/>
              </g>
              <g class="cls-7">
                <path class="cls-9" d="M2370.62,1687.36c-4.53,8.64-12.32,17.21-24.14,25.68-55.28,39.58-156.75,20.95-228.58-60.46-29.2-33.09-45.6-70.61-52.47-106.43-2.24,48.68,12.99,107.24,56.1,156.1,71.83,81.4,173.29,100.04,228.58,60.46,33.58-24,34.95-48.97,20.51-75.35Z"/>
              </g>
              <path class="cls-2" d="M2349.17,1408.31c31.32,0,56.65,30.73,62.76,38.82l6.94,7.86c7.41,7.22,35.73,37.24,30.41,69.04-1.94,11.59-9.15,27.64-32.46,38.34-18.76,8.61-41.92,21.11-66.96,36.13-4.46,2.68-7.41,7.16-8.09,12.3-.4,3.02-.33,8.84,4.59,13.94,27.32,28.29,56.19,61.52,52.88,97.89-1.92,21.11-14.49,40.12-37.36,56.49h0c-68.56,49.09-180.79,21.21-255.51-63.48-81.54-92.41-71.11-210.47-32.24-260.16,17.17-21.95,36.61-33.1,57.76-33.13h.09c38.97,0,71.78,37.53,102.04,75.98,3.21,4.07,8.03,6.41,13.23,6.41h0c5.2,0,10.01-2.34,13.21-6.42,18.26-23.23,33.7-44.86,44.67-62.55,13.52-21.8,30.35-26.95,42.09-27.43.65-.03,1.3-.04,1.95-.04ZM2281.33,1762.56c22.37,0,42.21-5.65,57.05-16.27h0c19.43-13.91,20.35-24,20.65-27.31,1.68-18.51-20.14-43.84-41.7-66.17-12.21-12.64-17.89-29.87-15.59-47.29,2.3-17.43,12.27-32.61,27.35-41.66,26.67-16,50.52-28.85,70.89-38.2,4-1.83,8.88-4.76,9.47-8.3,1.39-8.3-10.2-25.28-19.12-33.79-.42-.4-.82-.82-1.2-1.25l-8.01-9.07c-.39-.43-.75-.88-1.09-1.35-7.26-9.69-22.59-23.47-31.16-23.18-3.58.16-7.08,4.63-9.4,8.36-11.9,19.2-27.8,41.48-47.23,66.21-10.9,13.88-27.29,21.85-44.96,21.85h-.03c-17.66,0-34.05-7.95-44.97-21.82-15.48-19.66-47.67-60.57-70.3-60.57h-.03c-8.12.01-16.86,5.94-26,17.63-30.08,38.45-32.95,136.4,30.71,208.55,44.95,50.94,99.86,73.63,144.66,73.63ZM2350.13,1762.71h-.05.05Z"/>
            </g>
            <g class="cls-3">
              <ellipse class="cls-2" cx="2436.38" cy="1903.59" rx="21.22" ry="31.35"/>
            </g>
            <g class="cls-3">
              <ellipse class="cls-2" cx="1846.53" cy="1636.97" rx="21.22" ry="31.35"/>
            </g>
            <g class="cls-3">
              <ellipse class="cls-2" cx="2077.81" cy="2509.93" rx="21.22" ry="31.35"/>
            </g>
            <g class="cls-3">
              <ellipse class="cls-2" cx="2799.46" cy="2536.04" rx="21.22" ry="31.35"/>
            </g>
            <g class="cls-3">
              <ellipse class="cls-2" cx="2350.42" cy="1959.23" rx="11.19" ry="16.53"/>
            </g>
            <g class="cls-3">
              <ellipse class="cls-2" cx="2778.23" cy="2434.51" rx="11.19" ry="16.53"/>
            </g>
            <g class="cls-3">
              <ellipse class="cls-2" cx="2128.69" cy="2648.29" rx="11.19" ry="16.53"/>
            </g>
            <g class="cls-3">
              <ellipse class="cls-2" cx="1905.4" cy="1689.07" rx="11.19" ry="16.53"/>
            </g>
            <g class="cls-3">
              <ellipse class="cls-2" cx="2418.94" cy="2020.26" rx="19.04" ry="28.13"/>
            </g>
            <g>
              <path class="cls-4" d="M2601.95,2177.13c-38.38-52.96-91.75-87.05-162.57-99.15l42.41-69.54c67.71,10.88,121.9,43.93,162.57,99.15l-42.41,69.54Z"/>
              <g class="cls-7">
                <path class="cls-9" d="M2644.37,2107.58l-42.43,69.57c-6.84-9.46-14.2-18.31-22.02-26.54l26.34-43.12c-33.7-45.8-76.7-76.34-129-91.57l4.54-7.5c67.7,10.88,121.91,43.94,162.57,99.16Z"/>
              </g>
              <path class="cls-2" d="M2481.78,1991.13c.91,0,1.83.07,2.75.22,72.04,11.57,130.5,47.23,173.77,105.97,4.16,5.66,4.5,13.28.84,19.28l-42.41,69.54c-3.02,4.94-8.31,8.05-14.09,8.28-5.71.24-11.3-2.45-14.71-7.14-36.93-50.96-86.47-81.14-151.47-92.24-5.65-.97-10.46-4.67-12.84-9.9-2.38-5.22-2.01-11.28.98-16.18l42.41-69.54c3.17-5.21,8.81-8.3,14.78-8.3ZM2623.39,2108.72c-34.82-43.36-78.52-70-133.01-81.12l-23.5,38.53c53.46,13.63,98.09,40.72,133.18,80.85l23.33-38.26Z"/>
            </g>
            <g>
              <path class="cls-4" d="M2260.8,2874.43c-62.91-17.91-125.93-11.71-189.08,22.55l-9.65-80.88c59.95-33.3,122.98-40.82,189.08-22.55l9.65,80.88Z"/>
              <g class="cls-7">
                <path class="cls-9" d="M2251.16,2793.54l9.65,80.91c-11.22-3.21-22.48-5.62-33.72-7.25l-5.94-50.18c-54.8-15.17-107.48-12.6-158,7.75l-1.07-8.7c59.94-33.29,122.99-40.81,189.09-22.54Z"/>
              </g>
              <path class="cls-2" d="M2182.19,2766.57c24.18,0,48.73,3.43,73.57,10.29,6.78,1.87,11.75,7.65,12.58,14.63l9.65,80.87c.69,5.75-1.55,11.46-5.96,15.22-4.41,3.76-10.41,5.06-15.97,3.48-60.52-17.23-118.12-10.32-176.08,21.12-5.04,2.74-11.11,2.8-16.21.16-5.1-2.64-8.55-7.63-9.23-13.33l-9.64-80.88c-.83-6.98,2.64-13.77,8.78-17.19,41.25-22.91,84.27-34.4,128.53-34.4ZM2235.37,2807.4c-54.19-12.56-105-6.49-154.7,18.45l5.35,44.81c50.44-22.33,102.27-28.62,154.66-18.76l-5.31-44.5Z"/>
            </g>
            <g>
              <path class="cls-4" d="M1928.79,1797.89c-65.34,2.9-123.17,28.72-172.24,81.19l-34.73-73.67c46.34-50.55,103.76-77.62,172.24-81.19l34.73,73.67Z"/>
              <g class="cls-7">
                <path class="cls-9" d="M1894.07,1724.2l34.74,73.71c-11.66.51-23.1,1.78-34.28,3.78l-21.51-45.72c-56.79,2.94-105.95,22.03-147.44,57.32l-3.77-7.92c46.34-50.54,103.77-77.61,172.26-81.18Z"/>
              </g>
              <path class="cls-2" d="M1894.07,1706.9c6.67,0,12.79,3.85,15.65,9.93l34.73,73.67c2.47,5.24,2.15,11.36-.84,16.32-2.99,4.96-8.27,8.09-14.05,8.35-62.88,2.8-115.33,27.56-160.36,75.72-3.92,4.19-9.63,6.15-15.33,5.28-5.67-.89-10.53-4.53-12.97-9.72l-34.73-73.67c-3-6.36-1.85-13.9,2.9-19.08,49.3-53.78,111.24-82.98,184.1-86.79.3-.01.61-.02.91-.02ZM1902.58,1782.88l-19.11-40.54c-55.38,5.23-101.67,27.05-140.93,66.43l19.24,40.82c40.79-37.14,87.98-59.49,140.8-66.71Z"/>
            </g>
            <g class="cls-10">
              <path class="cls-5" d="M1868.31,3143.35c-38.38-20.54-84.15-22.26-127.41-17.38-21.83,2.46-46.64,8.73-56.21,28.5-8.67,17.9-.3,40.39,14.53,53.64,14.84,13.25,34.66,19.2,53.97,23.96,28.34,6.99,57.11,12.21,86.1,15.65,15.07,1.79,30.2,3.1,45.36,3.91,8.76.47,32.58,5.38,39.94.05,14.3-10.36-.47-46.97-6.68-58.78-10.99-20.93-28.79-38.42-49.6-49.55Z"/>
            </g>
            <g class="cls-10">
              <path class="cls-5" d="M1633.81,3186.35c4.03-12.79-4.58-26.06-14.2-35.4-14.38-13.97-32.11-24.46-51.27-30.33-8.47-2.6-18.07-4.2-25.88,0-7.03,3.79-11.08,11.59-12.73,19.41-5.76,27.23,14.36,52.15,39.09,61.41,18.64,6.98,57.61,8.32,64.99-15.09Z"/>
            </g>
          </g>
        </g>
      </g>
    </g>
  </g>
</svg>